<svg width="64" height="64" xmlns="http://www.w3.org/2000/svg">

 <g>
  <title>background</title>
  <rect fill="none" id="canvas_background" height="402" width="582" y="-1" x="-1"/>
 </g>
 <g>
  <title>Layer 1</title>
  <path id="svg_3" fill="#3694ff" d="m35.521,41.288c-3.422,0 -6.64,-1.333 -9.06,-3.753c-1.106,-1.106 -1.106,-2.9 0,-4.006c1.106,-1.106 2.9,-1.106 4.006,0c1.35,1.35 3.145,2.093 5.054,2.093c1.909,0 3.704,-0.743 5.054,-2.094l7.538,-7.538c2.787,-2.787 2.787,-7.321 0,-10.108c-2.787,-2.787 -7.321,-2.787 -10.108,0l-3.227,3.227c-1.106,1.106 -2.9,1.106 -4.006,0c-1.106,-1.106 -1.106,-2.9 0,-4.006l3.228,-3.226c4.996,-4.996 13.124,-4.995 18.12,0c4.996,4.996 4.996,13.124 0,18.12l-7.538,7.538c-2.421,2.42 -5.638,3.753 -9.061,3.753z"/>
  <path id="svg_5" fill="#2f7cd4" d="m20.94,55.869c-3.422,0 -6.64,-1.333 -9.06,-3.753c-4.996,-4.996 -4.996,-13.124 0,-18.12l7.538,-7.538c4.996,-4.995 13.124,-4.995 18.12,0c1.106,1.106 1.106,2.9 0,4.006c-1.106,1.106 -2.9,1.106 -4.006,0c-2.787,-2.787 -7.321,-2.787 -10.108,0l-7.538,7.538c-2.787,2.787 -2.787,7.321 0,10.108c1.35,1.35 3.145,2.094 5.054,2.094c1.909,0 3.704,-0.743 5.054,-2.093l3.227,-3.227c1.106,-1.106 2.9,-1.106 4.006,0c1.106,1.106 1.106,2.9 0,4.006l-3.227,3.227c-2.42,2.419 -5.637,3.752 -9.06,3.752z"/>
 </g>
</svg>